<svg width="37" height="49" fill="none" xmlns="http://www.w3.org/2000/svg"><path d="M33.222.944H3.778A2.944 2.944 0 00.833 3.89v41.22a2.945 2.945 0 002.945 2.945h29.444a2.944 2.944 0 002.945-2.945V3.89A2.944 2.944 0 0033.222.944zM9.667 39.222H6.722v-2.944h2.945v2.944zm0-8.833H6.722v-2.944h2.945v2.944zm0-8.833H6.722V18.61h2.945v2.945zm10.305 17.666h-2.944v-2.944h2.944v2.944zm0-8.833h-2.944v-2.944h2.944v2.944zm0-8.833h-2.944V18.61h2.944v2.945zm10.306 17.666h-2.945v-2.944h2.945v2.944zm0-8.833h-2.945v-2.944h2.945v2.944zm0-8.833h-2.945V18.61h2.945v2.945zm0-10.306H6.722V5.361h23.556v5.889z" fill="#fff"/></svg>