<svg width="31" height="31" fill="none" xmlns="http://www.w3.org/2000/svg"><path d="M15.5 31a15.21 15.21 0 01-6.024-1.226c-1.918-.818-3.568-1.917-4.95-3.3-1.383-1.382-2.483-3.032-3.3-4.95A15.206 15.206 0 010 15.5c0-2.099.409-4.107 1.226-6.024.817-1.918 1.917-3.568 3.3-4.95 1.382-1.383 3.032-2.483 4.95-3.3A15.206 15.206 0 0115.5 0c2.099 0 4.107.409 6.024 1.226 1.918.817 3.568 1.917 4.95 3.3 1.383 1.382 2.482 3.032 3.3 4.95A15.206 15.206 0 0131 15.5a15.21 15.21 0 01-1.226 6.024c-.818 1.918-1.917 3.568-3.3 4.95-1.382 1.383-3.032 2.482-4.95 3.3A15.205 15.205 0 0115.5 31zm7.75-21.313a1.89 1.89 0 00-.56-1.362 1.847 1.847 0 00-1.378-.575H9.688c-.524 0-.978.192-1.362.575a1.862 1.862 0 00-.575 1.363v1.937h3.451c1.17-1.292 2.604-1.938 4.299-1.938 1.695 0 3.128.646 4.299 1.938h3.451V9.687zM11.625 15.5c0 1.07.378 1.983 1.135 2.74a3.733 3.733 0 002.74 1.135c1.07 0 1.983-.378 2.74-1.135a3.733 3.733 0 001.135-2.74c0-1.07-.378-1.983-1.135-2.74a3.733 3.733 0 00-2.74-1.135c-1.07 0-1.983.378-2.74 1.135a3.733 3.733 0 00-1.135 2.74zm11.625-1.938h-2.3c.241.667.363 1.312.363 1.938 0 1.615-.566 2.987-1.696 4.117s-2.502 1.695-4.117 1.695c-1.615 0-2.987-.565-4.117-1.695-1.13-1.13-1.695-2.502-1.695-4.117 0-.626.12-1.271.363-1.938H7.75v7.75c0 .545.187 1.005.56 1.378.373.373.833.56 1.377.56h11.626c.544 0 1.004-.187 1.377-.56.373-.373.56-.833.56-1.378v-7.75z" fill="#fff" fill-opacity=".78"/></svg>